<svg xmlns="http://www.w3.org/2000/svg" fill="#000" version="1.1" xmlns:xlink="http://www.w3.org/1999/xlink" xmlns:svgjs="http://svgjs.com/svgjs" width="20" height="20" x="0" y="0" viewBox="0 0 20 20" style="enable-background:new 0 0 512 512" xml:space="preserve" class=""><g><path d="M15 0H5C2.2 0 0 2.2 0 5v10c0 2.8 2.2 5 5 5h10c2.8 0 5-2.2 5-5V5c0-2.8-2.2-5-5-5zm3 15c0 1.7-1.3 3-3 3H5c-1.7 0-3-1.3-3-3V5c0-1.7 1.3-3 3-3h10c1.7 0 3 1.3 3 3z" class=""></path><path d="M10 5c-2.8 0-5 2.2-5 5s2.2 5 5 5 5-2.2 5-5-2.2-5-5-5zm0 8c-1.7 0-3-1.3-3-3s1.3-3 3-3 3 1.3 3 3-1.3 3-3 3z" class=""></path><circle cx="15" cy="5" r="1" class=""></circle></g></svg>